<!DOCTYPE svg PUBLIC "-//W3C//DTD SVG 1.1//EN" "http://www.w3.org/Graphics/SVG/1.1/DTD/svg11.dtd">
<!-- Uploaded to: SVG Repo, www.svgrepo.com, Transformed by: SVG Repo Mixer Tools -->
<svg width="64px" height="64px" viewBox="0 0 20 20" version="1.1" xmlns="http://www.w3.org/2000/svg" fill="#677084">
<g id="SVGRepo_bgCarrier" stroke-width="0"/>
<g id="SVGRepo_tracerCarrier" stroke-linecap="round" stroke-linejoin="round"/>
<g id="SVGRepo_iconCarrier"> <g id="layer1"> <path d="M 0,0 V 20 H 6 V 0 Z m 7,0 v 20 h 6 V 0 Z m 7,0 v 20 h 6 V 0 Z M 1,1 H 5 V 12 H 1 Z m 7,0 h 4 V 12 H 8 Z m 7,0 h 4 V 12 H 15 Z M 1,13 h 4 v 6 H 1 Z m 7,0 h 4 v 6 H 8 Z m 7,0 h 4 v 6 H 15 Z M 3,16 a 1,1 0 0 0 -1,1 1,1 0 0 0 1,1 1,1 0 0 0 1,-1 1,1 0 0 0 -1,-1 z m 7,0 a 1,1 0 0 0 -1,1 1,1 0 0 0 1,1 1,1 0 0 0 1,-1 1,1 0 0 0 -1,-1 z m 7,0 a 1,1 0 0 0 -1,1 1,1 0 0 0 1,1 1,1 0 0 0 1,-1 1,1 0 0 0 -1,-1 z" style="fill:#677084; fill-opacity:1; stroke:none; stroke-width:0px;"/> </g> </g>
</svg>